HIERARCHY
ROOT Hips
{
	OFFSET 0.000000 87.230942 0.000000
	CHANNELS 6 Xposition Yposition Zposition Xrotation Yrotation Zrotation
	JOINT Pelvis
	{
		OFFSET 0.000000 0.000000 0.000000
		CHANNELS 3 Xrotation Yrotation Zrotation
		JOINT LeftUpLeg
		{
			OFFSET 12.017000 -9.376404 -2.439400
			CHANNELS 3 Xrotation Yrotation Zrotation
			JOINT LeftLeg
			{
				OFFSET -0.007312 -32.846973 2.110600
				CHANNELS 3 Xrotation Yrotation Zrotation
				JOINT LeftFoot
				{
					OFFSET 0.007312 -32.065170 -0.570400
					CHANNELS 3 Xrotation Yrotation Zrotation
					JOINT LeftToeBase
					{
						OFFSET 0.728300 -11.045900 13.180700
						CHANNELS 3 Xrotation Yrotation Zrotation
						End Site
						{
							OFFSET 0.000000 17.212589 0.000000
						}
					}
				}
				JOINT LeftPantLeg
				{
					OFFSET 0.002788 -16.709013 -3.143600
					CHANNELS 3 Xrotation Yrotation Zrotation
					End Site
					{
						OFFSET -0.605125 24.528742 0.000000
					}
				}
			}
			JOINT Left_Butt
			{
				OFFSET -6.630234 1.326584 -3.183700
				CHANNELS 3 Xrotation Yrotation Zrotation
				End Site
				{
					OFFSET -0.498041 20.188049 0.000000
				}
			}
		}
		JOINT RightUpLeg
		{
			OFFSET -11.717000 -9.376404 -2.439400
			CHANNELS 3 Xrotation Yrotation Zrotation
			JOINT RightLeg
			{
				OFFSET -0.003241 -32.846912 2.110600
				CHANNELS 3 Xrotation Yrotation Zrotation
				JOINT RightFoot
				{
					OFFSET 0.003241 -32.065136 -0.570500
					CHANNELS 3 Xrotation Yrotation Zrotation
					JOINT RightToeBase
					{
						OFFSET -0.728300 -11.045901 13.180700
						CHANNELS 3 Xrotation Yrotation Zrotation
						End Site
						{
							OFFSET 0.000000 17.212593 0.000000
						}
					}
				}
				JOINT RightPantLeg
				{
					OFFSET 0.008142 -16.708982 -3.143700
					CHANNELS 3 Xrotation Yrotation Zrotation
					End Site
					{
						OFFSET 0.605088 24.528715 0.000000
					}
				}
			}
			JOINT Right_Butt
			{
				OFFSET 6.630732 1.326584 -3.183700
				CHANNELS 3 Xrotation Yrotation Zrotation
				End Site
				{
					OFFSET 0.498015 20.188240 0.000000
				}
			}
		}
	}
	JOINT Spine
	{
		OFFSET -0.062400 7.848404 3.918300
		CHANNELS 3 Xrotation Yrotation Zrotation
		JOINT Spine1
		{
			OFFSET -0.072800 11.422302 0.713400
			CHANNELS 3 Xrotation Yrotation Zrotation
			JOINT Spine2
			{
				OFFSET -0.083200 13.054001 -1.931600
				CHANNELS 3 Xrotation Yrotation Zrotation
				JOINT Neck
				{
					OFFSET -0.092200 14.121796 -5.138800
					CHANNELS 3 Xrotation Yrotation Zrotation
					JOINT Head
					{
						OFFSET 0.000200 10.447403 -0.842000
						CHANNELS 3 Xrotation Yrotation Zrotation
						JOINT Visor
						{
							OFFSET 0.457100 25.671204 16.550400
							CHANNELS 3 Xrotation Yrotation Zrotation
							End Site
							{
								OFFSET 0.000000 26.061493 0.000000
							}
						}
						JOINT HairMidA
						{
							OFFSET 0.459400 31.585403 8.437400
							CHANNELS 3 Xrotation Yrotation Zrotation
							End Site
							{
								OFFSET 0.000000 26.061493 0.000000
							}
						}
						JOINT HairMidB
						{
							OFFSET 0.464000 33.309204 -8.389700
							CHANNELS 3 Xrotation Yrotation Zrotation
							End Site
							{
								OFFSET 0.000000 26.061493 0.000000
							}
						}
						JOINT HairMidC
						{
							OFFSET 0.466600 27.991196 -17.375099
							CHANNELS 3 Xrotation Yrotation Zrotation
							End Site
							{
								OFFSET 0.000000 26.061493 0.000000
							}
						}
						JOINT HairMidD
						{
							OFFSET 0.467700 17.888092 -21.169500
							CHANNELS 3 Xrotation Yrotation Zrotation
							End Site
							{
								OFFSET 0.000000 26.061493 0.000000
							}
						}
						JOINT HairMidE
						{
							OFFSET 5.325700 3.514603 -14.369699
							CHANNELS 3 Xrotation Yrotation Zrotation
							End Site
							{
								OFFSET 0.000000 26.061493 0.000000
							}
						}
						JOINT HairMidF
						{
							OFFSET -4.394100 3.514603 -14.372400
							CHANNELS 3 Xrotation Yrotation Zrotation
							End Site
							{
								OFFSET 0.000000 26.061493 0.000000
							}
						}
						JOINT HairLeftA
						{
							OFFSET 15.319900 25.746506 2.623300
							CHANNELS 3 Xrotation Yrotation Zrotation
							End Site
							{
								OFFSET 0.000000 26.061493 0.000000
							}
						}
						JOINT HairLeftB
						{
							OFFSET 12.619500 29.289398 -8.731499
							CHANNELS 3 Xrotation Yrotation Zrotation
							End Site
							{
								OFFSET 0.000000 26.061493 0.000000
							}
						}
						JOINT HairLeftC
						{
							OFFSET 15.714800 15.959900 2.909800
							CHANNELS 3 Xrotation Yrotation Zrotation
							End Site
							{
								OFFSET 0.000000 26.061493 0.000000
							}
						}
						JOINT HairLeftD
						{
							OFFSET 16.101700 18.437408 -7.553200
							CHANNELS 3 Xrotation Yrotation Zrotation
							End Site
							{
								OFFSET 0.000000 26.061493 0.000000
							}
						}
						JOINT HairLeftE
						{
							OFFSET 9.731900 17.915009 -18.316799
							CHANNELS 3 Xrotation Yrotation Zrotation
							End Site
							{
								OFFSET 0.000000 26.061493 0.000000
							}
						}
						JOINT HairLeftF
						{
							OFFSET 11.204300 4.953598 -9.668100
							CHANNELS 3 Xrotation Yrotation Zrotation
							End Site
							{
								OFFSET 0.000000 26.061493 0.000000
							}
						}
						JOINT HairRightA
						{
							OFFSET -14.397900 25.746307 2.615100
							CHANNELS 3 Xrotation Yrotation Zrotation
							End Site
							{
								OFFSET 0.000000 26.061493 0.000000
							}
						}
						JOINT HairRightB
						{
							OFFSET -11.691200 29.289200 -8.738199
							CHANNELS 3 Xrotation Yrotation Zrotation
							End Site
							{
								OFFSET 0.000000 26.061493 0.000000
							}
						}
						JOINT HairRightC
						{
							OFFSET -14.792900 15.959702 2.901400
							CHANNELS 3 Xrotation Yrotation Zrotation
							End Site
							{
								OFFSET 0.000000 26.061493 0.000000
							}
						}
						JOINT HairRightD
						{
							OFFSET -15.174000 18.437195 -7.561900
							CHANNELS 3 Xrotation Yrotation Zrotation
							End Site
							{
								OFFSET 0.000000 26.061493 0.000000
							}
						}
						JOINT HairRightE
						{
							OFFSET -8.798200 17.914902 -18.322001
							CHANNELS 3 Xrotation Yrotation Zrotation
							End Site
							{
								OFFSET 0.000000 26.061493 0.000000
							}
						}
						JOINT HairRightF
						{
							OFFSET -10.275200 4.953506 -9.674099
							CHANNELS 3 Xrotation Yrotation Zrotation
							End Site
							{
								OFFSET 0.000000 26.061493 0.000000
							}
						}
					}
				}
				JOINT LeftShoulder
				{
					OFFSET 5.133500 7.341202 -1.867600
					CHANNELS 3 Xrotation Yrotation Zrotation
					JOINT LeftArm
					{
						OFFSET 8.072663 0.936867 -2.176600
						CHANNELS 3 Xrotation Yrotation Zrotation
						JOINT LeftForeArm
						{
							OFFSET 31.271999 0.000000 0.000000
							CHANNELS 3 Xrotation Yrotation Zrotation
							JOINT LeftHand
							{
								OFFSET 31.771030 0.000000 0.000000
								CHANNELS 3 Xrotation Yrotation Zrotation
								JOINT LeftHandThumb1
								{
									OFFSET 2.886520 -2.557846 4.416640
									CHANNELS 3 Xrotation Yrotation Zrotation
									JOINT LeftHandThumb2
									{
										OFFSET 2.371025 -1.368912 1.368911
										CHANNELS 3 Xrotation Yrotation Zrotation
										JOINT LeftHandThumb3
										{
											OFFSET 2.243378 -1.295212 1.295213
											CHANNELS 3 Xrotation Yrotation Zrotation
											End Site
											{
												OFFSET -0.332611 2.876945 0.020015
											}
										}
									}
								}
								JOINT LeftHandIndex1
								{
									OFFSET 8.568985 -0.641945 3.119977
									CHANNELS 3 Xrotation Yrotation Zrotation
									JOINT LeftHandIndex2
									{
										OFFSET 3.348503 0.000000 0.000000
										CHANNELS 3 Xrotation Yrotation Zrotation
										JOINT LeftHandIndex3
										{
											OFFSET 3.314552 0.000000 0.000000
											CHANNELS 3 Xrotation Yrotation Zrotation
											End Site
											{
												OFFSET -1.032898 3.075485 0.678796
											}
										}
									}
								}
								JOINT LeftHandMiddle1
								{
									OFFSET 8.124603 0.000000 0.000000
									CHANNELS 3 Xrotation Yrotation Zrotation
									JOINT LeftHandMiddle2
									{
										OFFSET 4.166275 0.000000 0.000000
										CHANNELS 3 Xrotation Yrotation Zrotation
										JOINT LeftHandMiddle3
										{
											OFFSET 3.018135 0.000000 0.000000
											CHANNELS 3 Xrotation Yrotation Zrotation
											End Site
											{
												OFFSET -1.032700 2.767982 0.617226
											}
										}
									}
								}
								JOINT LeftHandRing1
								{
									OFFSET 8.571686 -0.031357 -2.884048
									CHANNELS 3 Xrotation Yrotation Zrotation
									JOINT LeftHandRing2
									{
										OFFSET 3.671181 0.000000 0.000000
										CHANNELS 3 Xrotation Yrotation Zrotation
										JOINT LeftHandRing3
										{
											OFFSET 2.728851 0.000000 0.000000
											CHANNELS 3 Xrotation Yrotation Zrotation
											End Site
											{
												OFFSET -0.815796 2.539223 0.577389
											}
										}
									}
								}
								JOINT LeftHandPinky1
								{
									OFFSET 7.854515 -0.675232 -5.213020
									CHANNELS 3 Xrotation Yrotation Zrotation
									JOINT LeftHandPinky2
									{
										OFFSET 3.068596 0.000000 0.000000
										CHANNELS 3 Xrotation Yrotation Zrotation
										JOINT LeftHandPinky3
										{
											OFFSET 2.396042 0.000000 0.000000
											CHANNELS 3 Xrotation Yrotation Zrotation
											End Site
											{
												OFFSET -0.524597 2.267998 0.567429
											}
										}
									}
								}
							}
							JOINT LeftSleeve
							{
								OFFSET 19.684509 -0.200119 0.476146
								CHANNELS 3 Xrotation Yrotation Zrotation
								End Site
								{
									OFFSET -0.031017 25.731133 -0.002868
								}
							}
						}
					}
				}
				JOINT RightShoulder
				{
					OFFSET -4.395900 7.341202 -1.870200
					CHANNELS 3 Xrotation Yrotation Zrotation
					JOINT RightArm
					{
						OFFSET -8.071453 0.936867 -2.181100
						CHANNELS 3 Xrotation Yrotation Zrotation
						JOINT RightForeArm
						{
							OFFSET -31.272011 0.000000 0.000000
							CHANNELS 3 Xrotation Yrotation Zrotation
							JOINT RightHand
							{
								OFFSET -31.771019 0.000000 0.000000
								CHANNELS 3 Xrotation Yrotation Zrotation
								JOINT RightHandThumb1
								{
									OFFSET -2.886520 -2.557808 4.416626
									CHANNELS 3 Xrotation Yrotation Zrotation
									JOINT RightHandThumb2
									{
										OFFSET -2.371056 -1.368927 1.368928
										CHANNELS 3 Xrotation Yrotation Zrotation
										JOINT RightHandThumb3
										{
											OFFSET -2.243362 -1.295204 1.295206
											CHANNELS 3 Xrotation Yrotation Zrotation
											End Site
											{
												OFFSET 0.332642 2.876938 0.020047
											}
										}
									}
								}
								JOINT RightHandIndex1
								{
									OFFSET -8.568993 -0.641953 3.120017
									CHANNELS 3 Xrotation Yrotation Zrotation
									JOINT RightHandIndex2
									{
										OFFSET -3.348518 0.000000 0.000000
										CHANNELS 3 Xrotation Yrotation Zrotation
										JOINT RightHandIndex3
										{
											OFFSET -3.314552 0.000000 0.000000
											CHANNELS 3 Xrotation Yrotation Zrotation
											End Site
											{
												OFFSET 1.032898 3.075478 0.678804
											}
										}
									}
								}
								JOINT RightHandMiddle1
								{
									OFFSET -8.124588 0.000000 0.000000
									CHANNELS 3 Xrotation Yrotation Zrotation
									JOINT RightHandMiddle2
									{
										OFFSET -4.166275 0.000000 0.000000
										CHANNELS 3 Xrotation Yrotation Zrotation
										JOINT RightHandMiddle3
										{
											OFFSET -3.018097 0.000000 0.000000
											CHANNELS 3 Xrotation Yrotation Zrotation
											End Site
											{
												OFFSET 1.032700 2.767937 0.617197
											}
										}
									}
								}
								JOINT RightHandRing1
								{
									OFFSET -8.571747 -0.031349 -2.884061
									CHANNELS 3 Xrotation Yrotation Zrotation
									JOINT RightHandRing2
									{
										OFFSET -3.671204 0.000000 0.000000
										CHANNELS 3 Xrotation Yrotation Zrotation
										JOINT RightHandRing3
										{
											OFFSET -2.728874 0.000000 0.000000
											CHANNELS 3 Xrotation Yrotation Zrotation
											End Site
											{
												OFFSET 0.815804 2.539261 0.577413
											}
										}
									}
								}
								JOINT RightHandPinky1
								{
									OFFSET -7.854561 -0.675247 -5.212970
									CHANNELS 3 Xrotation Yrotation Zrotation
									JOINT RightHandPinky2
									{
										OFFSET -3.068550 0.000000 0.000000
										CHANNELS 3 Xrotation Yrotation Zrotation
										JOINT RightHandPinky3
										{
											OFFSET -2.395981 0.000000 0.000000
											CHANNELS 3 Xrotation Yrotation Zrotation
											End Site
											{
												OFFSET 0.524605 2.267952 0.567413
											}
										}
									}
								}
							}
							JOINT RightSleeve
							{
								OFFSET -19.684753 -0.200165 0.476065
								CHANNELS 3 Xrotation Yrotation Zrotation
								End Site
								{
									OFFSET 0.031342 25.731255 -0.002917
								}
							}
						}
					}
				}
				JOINT Hood
				{
					OFFSET 0.369700 14.447800 -5.317800
					CHANNELS 3 Xrotation Yrotation Zrotation
					JOINT Hood1
					{
						OFFSET 0.001700 -5.553802 -5.895100
						CHANNELS 3 Xrotation Yrotation Zrotation
						JOINT Hood2
						{
							OFFSET -0.000200 -8.380501 0.763600
							CHANNELS 3 Xrotation Yrotation Zrotation
							End Site
							{
								OFFSET 0.000000 8.415215 0.000000
							}
						}
					}
				}
				JOINT Left_Breast
				{
					OFFSET 5.682500 3.120102 3.188800
					CHANNELS 3 Xrotation Yrotation Zrotation
					End Site
					{
						OFFSET 0.000000 10.528564 0.000000
					}
				}
				JOINT Right_Breast
				{
					OFFSET -4.947600 3.120102 3.185900
					CHANNELS 3 Xrotation Yrotation Zrotation
					End Site
					{
						OFFSET 0.000000 10.528564 0.000000
					}
				}
				JOINT Whistle
				{
					OFFSET 0.368200 11.471298 0.095400
					CHANNELS 3 Xrotation Yrotation Zrotation
					JOINT Whistle1
					{
						OFFSET -0.002000 -6.349899 7.479800
						CHANNELS 3 Xrotation Yrotation Zrotation
						JOINT Whistle2
						{
							OFFSET -0.001300 -8.217598 4.717600
							CHANNELS 3 Xrotation Yrotation Zrotation
							End Site
							{
								OFFSET 0.000000 9.475479 0.000000
							}
						}
					}
				}
			}
		}
		JOINT Belly
		{
			OFFSET 0.212400 1.593002 3.163700
			CHANNELS 3 Xrotation Yrotation Zrotation
			End Site
			{
				OFFSET 0.000000 7.496635 0.000000
			}
		}
	}
	JOINT FitGrandmaFacialAnim_Joint
	{
		OFFSET 1.150000 -86.211197 -1.220100
		CHANNELS 3 Xrotation Yrotation Zrotation
		End Site
		{
			OFFSET 0.000000 31.666618 0.000000
		}
	}
}
MOTION
Frames: 4
Frame Time: 0.016667
5.946644 81.716591 -2.277285 7.626719 -32.632581 -18.740538 -0.000000 0.000001 -0.000000 -33.790715 -7.429321 26.038788 54.798662 6.013653 9.226344 -18.871160 30.633955 -12.601043 0.000000 0.000000 -0.000000 0.000003 0.000000 0.000002 -0.000001 0.000000 0.000001 -18.576380 8.116095 24.818037 7.250559 -0.723422 5.974736 5.372852 12.655029 -7.273346 -0.000000 -0.000000 0.000000 0.000000 -0.000001 -0.000001 -0.000001 -0.000002 -0.000000 19.900419 -5.956263 13.519670 14.882788 -0.853699 11.261196 15.131236 -0.648043 9.675234 -9.983874 -2.860074 5.479620 44.315220 -21.168857 34.786386 0.000001 -0.000000 -0.000000 0.000001 -0.000000 -0.000000 0.000001 -0.000000 -0.000000 0.000001 -0.000000 -0.000000 0.000001 -0.000000 -0.000000 0.000001 -0.000000 -0.000000 0.000001 -0.000000 -0.000000 0.000001 -0.000000 -0.000000 0.000001 -0.000000 -0.000000 0.000001 -0.000000 -0.000000 0.000001 -0.000000 -0.000000 0.000001 -0.000000 -0.000000 0.000001 -0.000000 -0.000000 0.000001 -0.000000 -0.000000 0.000001 -0.000000 -0.000000 0.000001 -0.000000 -0.000000 0.000001 -0.000000 -0.000000 0.000001 -0.000000 -0.000000 0.000001 -0.000000 -0.000000 1.428803 -22.224467 -11.600548 -29.377108 -24.713919 -57.022845 0.000005 -6.918366 -0.000003 -21.663617 1.158962 -14.566394 18.491277 -0.461435 10.916070 1.284067 32.757608 -3.088985 0.000000 0.000002 -0.000000 0.339561 4.671346 -7.844267 0.387033 2.823571 -20.566237 0.000001 -0.000000 -0.000001 0.912578 8.769265 -15.831736 0.919075 3.991120 -33.400421 -0.000003 -0.000002 0.000005 2.555810 11.673031 -26.909183 1.710657 3.886803 -40.215464 0.000001 -0.000000 0.000000 5.576047 16.029192 -36.940621 1.378682 4.077628 -45.645628 0.000001 -0.000000 0.000001 -0.000001 0.000000 0.000000 2.724555 8.294344 13.453012 6.429276 49.813820 20.457877 -0.000001 22.722607 0.000000 -0.688175 13.861784 2.493913 18.491279 0.461414 -10.916074 1.284040 -32.757608 3.088944 -0.000001 0.000002 0.000000 0.339560 -4.671354 7.844282 0.387031 -2.823590 20.566272 -0.000001 0.000002 0.000002 0.912585 -8.769259 15.831747 0.919076 -3.991132 33.400448 -0.000002 0.000001 -0.000007 2.555810 -11.673036 26.909188 1.710654 -3.886785 40.215447 0.000002 -0.000003 -0.000003 5.576081 -16.029189 36.940621 1.378683 -4.077621 45.645639 -0.000001 0.000001 0.000002 -0.000001 -0.000000 0.000000 -0.000001 0.000003 -0.000001 -0.000001 0.000003 -0.000001 -0.000001 0.000003 -0.000001 -0.000001 0.000003 -0.000001 -0.000001 0.000003 -0.000001 -0.000001 0.000003 -0.000003 0.000001 -0.000001 0.000001 0.000001 -0.000001 0.000001 -0.000001 0.000002 0.000001 -0.000000 0.000001 -0.000000 
5.893047 81.715919 -2.279341 7.633099 -32.504034 -18.724006 -0.000000 0.000001 -0.000000 -33.830589 -7.383232 26.081566 54.763125 5.984630 9.225896 -18.871386 30.456268 -12.603602 0.000000 -0.000000 0.000000 0.000003 0.000002 -0.000002 0.000001 -0.000002 0.000000 -18.592021 8.101510 24.845698 7.337375 -0.701348 5.957411 5.282709 12.512771 -7.306410 0.000000 -0.000000 0.000000 0.000000 0.000000 -0.000001 -0.000000 0.000001 -0.000000 19.826861 -5.989495 13.590978 14.845367 -0.865568 11.290746 15.093028 -0.659117 9.704713 -9.957542 -2.861788 5.471380 44.377860 -21.263555 34.788926 -0.000000 -0.000001 -0.000000 -0.000000 -0.000001 -0.000000 -0.000000 -0.000001 -0.000000 -0.000000 -0.000001 -0.000000 -0.000000 -0.000001 -0.000000 -0.000000 -0.000001 -0.000000 -0.000000 -0.000001 -0.000000 -0.000000 -0.000001 -0.000000 -0.000000 -0.000001 -0.000000 -0.000000 -0.000001 -0.000000 -0.000000 -0.000001 -0.000000 -0.000000 -0.000001 -0.000000 -0.000000 -0.000001 -0.000000 -0.000000 -0.000001 -0.000000 -0.000000 -0.000001 -0.000000 -0.000000 -0.000001 -0.000000 -0.000000 -0.000001 -0.000000 -0.000000 -0.000001 -0.000000 -0.000000 -0.000001 -0.000000 1.421051 -22.263307 -11.624751 -29.239497 -24.946677 -57.154029 0.000001 -6.919576 0.000005 -22.087442 0.509917 -14.614102 18.491279 -0.461436 10.916070 1.284066 32.757604 -3.088986 -0.000000 0.000001 -0.000000 0.339564 4.671346 -7.844269 0.387034 2.823570 -20.566236 -0.000000 -0.000001 0.000002 0.912581 8.769265 -15.831745 0.919072 3.991122 -33.400421 -0.000001 -0.000001 0.000002 2.555812 11.673032 -26.909187 1.710657 3.886804 -40.215464 0.000001 0.000002 -0.000001 5.576052 16.029192 -36.940621 1.378682 4.077630 -45.645628 0.000002 -0.000001 0.000001 -0.000001 -0.000000 -0.000000 2.805143 8.300644 13.088452 6.473858 49.476330 20.586800 -0.000001 23.126213 0.000004 -0.900188 13.002781 2.887942 18.491282 0.461412 -10.916074 1.284035 -32.757615 3.088947 -0.000002 -0.000000 -0.000001 0.339562 -4.671352 7.844282 0.387029 -2.823590 20.566268 -0.000002 0.000001 0.000001 0.912584 -8.769262 15.831748 0.919078 -3.991134 33.400451 0.000000 -0.000000 -0.000009 2.555809 -11.673037 26.909188 1.710654 -3.886787 40.215447 0.000001 -0.000003 -0.000005 5.576081 -16.029189 36.940624 1.378688 -4.077621 45.645639 -0.000001 -0.000000 -0.000000 -0.000001 -0.000000 -0.000000 -0.000001 0.000001 -0.000001 -0.000001 0.000001 -0.000001 -0.000001 0.000001 -0.000001 -0.000001 0.000001 -0.000001 -0.000001 0.000001 -0.000001 -0.000001 0.000001 -0.000001 -0.000001 -0.000000 0.000001 -0.000001 -0.000000 0.000001 0.000003 0.000002 -0.000000 -0.000000 0.000001 -0.000000 
5.838453 81.718018 -2.279667 7.636368 -32.355634 -18.702573 0.000001 -0.000001 -0.000001 -33.857996 -7.345986 26.107729 54.709808 5.983890 9.226062 -18.859551 30.248640 -12.616059 0.000000 0.000000 -0.000000 0.000003 -0.000000 0.000001 -0.000002 -0.000001 -0.000000 -18.599527 8.088621 24.866958 7.423739 -0.674291 5.934387 5.184604 12.349647 -7.334991 0.000000 0.000000 0.000000 0.000000 -0.000002 -0.000001 -0.000001 0.000000 -0.000000 19.755866 -6.021742 13.663034 14.807953 -0.877131 11.320873 15.054854 -0.669731 9.734745 -9.931997 -2.864888 5.463863 44.440185 -21.362269 34.797604 -0.000001 -0.000000 0.000001 -0.000001 -0.000000 0.000001 -0.000001 -0.000000 0.000001 -0.000001 -0.000000 0.000001 -0.000001 -0.000000 0.000001 -0.000001 -0.000000 0.000001 -0.000001 -0.000000 0.000001 -0.000001 -0.000000 0.000001 -0.000001 -0.000000 0.000001 -0.000001 -0.000000 0.000001 -0.000001 -0.000000 0.000001 -0.000001 -0.000000 0.000001 -0.000001 -0.000000 0.000001 -0.000001 -0.000000 0.000001 -0.000001 -0.000000 0.000001 -0.000001 -0.000000 0.000001 -0.000001 -0.000000 0.000001 -0.000001 -0.000000 0.000001 -0.000001 -0.000000 0.000001 1.413644 -22.300052 -11.647856 -29.076740 -25.170198 -57.285343 -0.000001 -6.920563 -0.000003 -22.500214 -0.128284 -14.674313 18.491279 -0.461436 10.916068 1.284064 32.757615 -3.088987 0.000000 -0.000000 0.000001 0.339561 4.671346 -7.844268 0.387035 2.823570 -20.566241 0.000001 -0.000000 0.000000 0.912580 8.769265 -15.831740 0.919077 3.991125 -33.400424 -0.000001 -0.000001 0.000004 2.555810 11.673033 -26.909187 1.710659 3.886802 -40.215461 0.000001 0.000001 -0.000001 5.576049 16.029192 -36.940621 1.378684 4.077628 -45.645628 -0.000000 -0.000000 0.000001 0.000000 0.000000 0.000000 2.887477 8.303048 12.724779 6.502551 49.145062 20.735548 0.000002 23.528028 -0.000014 -1.075815 12.131590 3.207529 18.491284 0.461412 -10.916074 1.284038 -32.757608 3.088939 0.000003 0.000002 0.000001 0.339561 -4.671354 7.844280 0.387031 -2.823589 20.566273 0.000000 -0.000001 0.000003 0.912585 -8.769263 15.831750 0.919081 -3.991132 33.400448 0.000002 0.000000 0.000000 2.555809 -11.673035 26.909188 1.710656 -3.886781 40.215447 0.000000 -0.000003 0.000001 5.576081 -16.029192 36.940621 1.378683 -4.077620 45.645639 -0.000002 -0.000000 0.000001 -0.000001 -0.000000 -0.000000 -0.000001 -0.000000 -0.000000 -0.000001 -0.000000 -0.000000 -0.000001 -0.000000 -0.000000 -0.000001 -0.000000 -0.000000 -0.000001 -0.000000 -0.000000 -0.000001 -0.000000 -0.000000 0.000002 -0.000001 0.000002 0.000002 -0.000001 0.000002 -0.000000 0.000000 -0.000001 0.000001 -0.000001 -0.000001 
5.783083 81.723114 -2.277954 7.635895 -32.188544 -18.676437 0.000001 0.000000 0.000003 -33.869894 -7.318725 26.116253 54.638785 6.006054 9.226705 -18.836092 30.024125 -12.637383 0.000000 -0.000000 -0.000000 0.000001 -0.000001 0.000003 -0.000003 -0.000000 0.000001 -18.595793 8.077172 24.880231 7.506148 -0.647310 5.907706 5.081284 12.173158 -7.360745 -0.000000 0.000001 0.000000 0.000000 0.000000 -0.000000 -0.000000 0.000001 0.000000 19.686849 -6.052096 13.736012 14.770573 -0.887988 11.351581 15.016745 -0.679452 9.765316 -9.907212 -2.869394 5.456888 44.501117 -21.463999 34.810592 -0.000000 -0.000002 0.000000 -0.000000 -0.000002 0.000000 -0.000000 -0.000002 0.000000 -0.000000 -0.000002 0.000000 -0.000000 -0.000002 0.000000 -0.000000 -0.000002 0.000000 -0.000000 -0.000002 0.000000 -0.000000 -0.000002 0.000000 -0.000000 -0.000002 0.000000 -0.000000 -0.000002 0.000000 -0.000000 -0.000002 0.000000 -0.000000 -0.000002 0.000000 -0.000000 -0.000002 0.000000 -0.000000 -0.000002 0.000000 -0.000000 -0.000002 0.000000 -0.000000 -0.000002 0.000000 -0.000000 -0.000002 0.000000 -0.000000 -0.000002 0.000000 -0.000000 -0.000002 0.000000 1.406876 -22.333686 -11.669297 -28.888825 -25.384536 -57.416332 -0.000013 -6.922034 -0.000010 -22.902244 -0.751438 -14.745274 18.491279 -0.461436 10.916071 1.284065 32.757604 -3.088985 -0.000000 -0.000003 0.000000 0.339562 4.671346 -7.844264 0.387031 2.823570 -20.566236 0.000001 0.000001 -0.000003 0.912578 8.769264 -15.831735 0.919075 3.991122 -33.400417 0.000000 -0.000000 0.000002 2.555809 11.673031 -26.909178 1.710657 3.886805 -40.215464 0.000000 0.000002 -0.000001 5.576047 16.029197 -36.940617 1.378685 4.077631 -45.645639 0.000001 -0.000001 -0.000000 -0.000000 0.000000 0.000000 2.971389 8.302328 12.360879 6.513131 48.819942 20.906751 0.000007 23.926612 -0.000009 -1.214045 11.254100 3.455869 18.491279 0.461414 -10.916074 1.284040 -32.757611 3.088945 -0.000001 -0.000000 0.000001 0.339560 -4.671354 7.844281 0.387030 -2.823590 20.566272 0.000004 0.000001 -0.000000 0.912585 -8.769261 15.831750 0.919079 -3.991135 33.400451 -0.000001 0.000001 -0.000001 2.555809 -11.673037 26.909195 1.710649 -3.886784 40.215440 -0.000000 0.000001 0.000003 5.576081 -16.029196 36.940631 1.378686 -4.077620 45.645628 -0.000001 -0.000001 -0.000000 -0.000002 -0.000000 -0.000000 0.000001 0.000002 -0.000000 0.000001 0.000002 -0.000000 0.000001 0.000002 -0.000000 0.000001 0.000002 -0.000000 0.000001 0.000002 -0.000000 0.000001 0.000002 -0.000002 -0.000001 0.000001 -0.000000 -0.000001 0.000001 -0.000000 -0.000000 -0.000003 0.000002 0.000001 0.000000 0.000003 
